<svg class="svg-icon" style="width: 1em; height: 1em;vertical-align: middle;fill: currentColor;overflow: hidden;" viewBox="0 0 1024 1024" version="1.1" xmlns="http://www.w3.org/2000/svg"><path d="M535.42 74.41H593v91.38c108.53 0.61 217.17-1.12 325.6 0.51 23.35-2.23 41.63 15.94 39.29 39.29 1.73 189.66-0.41 379.42 1 569.19-1 20.5 2 43.25-9.75 61.42-14.82 10.76-34.11 9.34-51.47 10.15-101.53-0.51-203.06-0.35-304.67-0.35v101.57h-63.18c-154.73-28.23-309.77-54-464.6-81.22q-0.15-355.31 0-710.51c156.67-27.12 313.33-54.73 470.2-81.43z" fill="#64A247" /><path d="M112.32 550.12V426h23.19v48.84h45.44V426h23.2v124.1h-23.2v-54.25h-45.44v54.27zM254 550.12V447h-34.11v-21h91.29v21h-34v103.12zM325.84 550.12V426h34.71l20.84 84.65L402 426h34.79v124.1h-21.55v-97.67l-22.8 97.68h-22.33l-22.73-97.68v97.68zM460.44 550.12V427h23.2v102.2h57.67v20.91zM589.6 196.24v619.34h335.05V196.24z m75.43 361l-48.73-39a7.37 7.37 0 0 1-2.44-5.69 9.22 9.22 0 0 1 2.44-6.5l48.73-39a8 8 0 1 1 11.37 11.37l-42.24 34.18 42.24 34.12c3.25 3.25 3.25 8.12 0 10.56a7.85 7.85 0 0 1-11.4-0.01z m17.87 57.67c-4.87-0.81-5.69-6.5-3.25-10.56l101.53-195.72c2.44-4.06 7.31-5.69 11.37-3.25a8.74 8.74 0 0 1 2.45 11.37L694.27 611.69c-2.44 4.06-6.5 4.88-11.37 3.25z m172.2-95.85l-48.74 39A8 8 0 0 1 795 546.71l42.24-34.12L795 478.48a8 8 0 0 1 11.37-11.37l48.74 39q2.44 2.44 2.44 7.31a8.78 8.78 0 0 1-2.46 5.68z" fill="#FFFFFF" /></svg>